<svg version="1.1" id="Layer_2" xmlns="http://www.w3.org/2000/svg" xmlns:xlink="http://www.w3.org/1999/xlink" x="0px" y="0px" viewBox="0 0 1280 720" style="enable-background:new 0 0 1280 720;" xml:space="preserve" width="1280"  height="720" >
<style type="text/css">
	.st0{enable-background:new    ;}
	.st1{opacity:0.6;}
	.st2{fill:#FFFFFF;}
</style>
<g class="st0">
	<path class="st1" d="M114,641.1c-15.2,0-27.5-12.3-27.5-27.5v-153c0-15.2,12.3-27.5,27.5-27.5h200c15.2,0,27.5,12.3,27.5,27.5v153   c0,15.2-12.3,27.5-27.5,27.5H114z"/>
	<path class="st2" d="M314,437.6c12.7,0,23,10.3,23,23v153c0,12.6-10.3,23-23,23H114c-12.6,0-23-10.3-23-23v-153   c0-12.7,10.4-23,23-23H314 M314,428.6H114c-17.6,0-32,14.4-32,32v153c0,17.6,14.4,32,32,32h200c17.6,0,32-14.4,32-32v-153   C346,443,331.6,428.6,314,428.6L314,428.6z"/>
</g>
<g>
	<path class="st2" d="M271.1,532.6c4.3,2.5,4.3,6.5,0,9l-36.3,21c-4.3,2.5-11.3,6.5-15.6,9l-36.3,20.9c-4.3,2.5-7.8,0.4-7.8-4.5   v-41.9c0-5,0-13,0-18v-41.9c0-5,3.5-7,7.8-4.5l36.3,20.9c4.3,2.5,11.3,6.5,15.6,9L271.1,532.6z"/>
</g>
</svg>